<svg xmlns="http://www.w3.org/2000/svg" xmlns:xlink="http://www.w3.org/1999/xlink" width="12.778" height="13.173" viewBox="0 0 12.778 13.173">
  <defs>
    <clipPath id="clip-path">
      <rect width="12.778" height="13.174" fill="none"/>
    </clipPath>
  </defs>
  <g id="Arrow_Down" data-name="Arrow Down" clip-path="url(#clip-path)">
    <g id="Groupe_2844" data-name="Groupe 2844" transform="translate(34.431 28.482) rotate(90)">
      <g id="Groupe_2822" data-name="Groupe 2822" transform="translate(-28.482 21.653)">
        <g id="Groupe_2821" data-name="Groupe 2821" transform="translate(0 0)">
          <path id="Tracé_1292" data-name="Tracé 1292" d="M52.713,28.277a1.065,1.065,0,0,0,.184.014h8.785l-.229.107a2.132,2.132,0,0,0-.6.426L57.9,31.771a1.1,1.1,0,0,0-.155,1.412,1.066,1.066,0,0,0,1.6.139l5.33-5.33a1.066,1.066,0,0,0,0-1.508h0l-5.33-5.33a1.066,1.066,0,0,0-1.6.107,1.1,1.1,0,0,0,.155,1.412l2.942,2.953a2.132,2.132,0,0,0,.533.389l.32.144H52.956a1.1,1.1,0,0,0-1.125.9A1.066,1.066,0,0,0,52.713,28.277Z" transform="translate(-51.818 -20.842)" fill="#043570"/>
        </g>
      </g>
    </g>
  </g>
</svg>
