<svg xmlns="http://www.w3.org/2000/svg" width="24.888" height="31.709" viewBox="0 0 24.888 31.709">
  <g id="Groupe_2951" data-name="Groupe 2951" transform="translate(-1059.321 -285.293)">
    <path id="Tracé_1537" data-name="Tracé 1537" d="M57.6,31.709l-.018-.007v0A.237.237,0,0,0,57.5,31.7,2.056,2.056,0,0,1,56.34,31.4a1.222,1.222,0,0,1-.321-.9V20.748a4.393,4.393,0,0,1,.453-1.945c.9-1.864,4.431-3.113,6.392-3.561.105-.079.245-.188.409-.315l.261-.2.013-.013,0,0c.146-.116.313-.246.508-.4a5.953,5.953,0,0,1-1.172-1.72,15.323,15.323,0,0,1-.741-4.726l-.006-.093V6.128c-.06-3.762,1.739-4.674,2.842-4.879A4.064,4.064,0,0,1,67.409.061,5.562,5.562,0,0,1,68.242,0a7.171,7.171,0,0,1,2.31.395A6.948,6.948,0,0,1,73.406,2.2a4.642,4.642,0,0,1,1.287,3.17v2.4c0,.139,0,3.412-.624,4.7a7.178,7.178,0,0,1-1.262,1.794c.194.149.361.279.508.4.237.188.48.375.658.511l.09.069c.36.084,5.032,1.215,6.329,3.429a4.058,4.058,0,0,1,.515,2.077v9.753a1.209,1.209,0,0,1-.32.9,1.148,1.148,0,0,1-.836.293Zm21.849-1.492V20.748a3.351,3.351,0,0,0-.442-1.769,5.468,5.468,0,0,0-1.784-1.169V29.873c0,.125,0,.238-.008.343Zm-5.875,0c0-.1-.008-.218-.008-.343V16.607l-.076-.02-.111-.028-.02,0-.941-.685c-.122-.095-.254-.2-.254-.2a3.994,3.994,0,0,1-.35-.3l-.005,0c-.036-.032-.073-.065-.114-.1a7.122,7.122,0,0,1-1.625.892c-.052.021-.132.051-.212.075a5.308,5.308,0,0,1-1.3.242,8.852,8.852,0,0,1-1.495-.22l-.007,0c-.088-.027-.183-.061-.275-.094A6.7,6.7,0,0,1,65.2,15.3c-.07.055-.136.107-.2.163-.112.092-.227.187-.373.3l-.184.145L63.5,16.6l-.015,0c-.035.012-.073.021-.111.031l-.013,0V29.88c0,.12,0,.232-.008.337Zm-13.867,0c0-.105-.008-.218-.008-.343V17.982a4.782,4.782,0,0,0-1.9,1.461,2.97,2.97,0,0,0-.307,1.3v9.469Zm16.13-.046V17.22c-.144-.045-.338-.089-.526-.132-.129-.029-.253-.058-.358-.085V30.17Zm-13.867,0v-13.1c-.093.027-.2.055-.313.084-.2.051-.417.107-.572.165V30.17Zm1.646-19.962a3.014,3.014,0,0,0,.081.572,6.131,6.131,0,0,0,3.6,4,3.211,3.211,0,0,0,1.128.238h.033a3.186,3.186,0,0,0,1.1-.238,6.131,6.131,0,0,0,3.6-4,3.1,3.1,0,0,0,.083-.671V8.637l-.013-1.273v-2c0-1.85-1.7-3.087-3.149-3.584a5.9,5.9,0,0,0-1.837-.312,2.832,2.832,0,0,0-2.292.912.731.731,0,0,1-.52.283c-1.542.139-1.836,1.943-1.81,3.432V7.726l.013,1.3v1.183Z" transform="translate(1003.302 285.293)" fill="#043570"/>
    <g id="Groupe_2950" data-name="Groupe 2950" transform="translate(947.374 32.633)">
      <path id="Tracé_1538" data-name="Tracé 1538" d="M117.028,292.675H115.65V280.4l1.379-.619Z" transform="translate(0 -9.82)" fill="#c10c1a"/>
      <path id="Tracé_1539" data-name="Tracé 1539" d="M153.571,282.856h-1.379v-13.13l1.379-.41Z" transform="translate(-34.28)" fill="#c10c1a"/>
      <path id="Tracé_1540" data-name="Tracé 1540" d="M376.1,290.8h1.379V278.4l-1.379-.62Z" transform="translate(-244.316 -7.944)" fill="#c10c1a"/>
      <path id="Tracé_1541" data-name="Tracé 1541" d="M339.556,282.856h1.379V269.663l-1.379-.348Z" transform="translate(-210.037)" fill="#c10c1a"/>
    </g>
  </g>
</svg>
