<svg xmlns="http://www.w3.org/2000/svg" xmlns:xlink="http://www.w3.org/1999/xlink" width="56" height="56" viewBox="0 0 56 56">
  <defs>
    <filter id="Ellipse_277" x="0" y="0" width="56" height="56" filterUnits="userSpaceOnUse">
      <feOffset dy="3" input="SourceAlpha"/>
      <feGaussianBlur stdDeviation="3" result="blur"/>
      <feFlood flood-opacity="0.161"/>
      <feComposite operator="in" in2="blur"/>
      <feComposite in="SourceGraphic"/>
    </filter>
  </defs>
  <g id="Heart" transform="translate(9 6)">
    <g transform="matrix(1, 0, 0, 1, -9, -6)" filter="url(#Ellipse_277)">
      <circle id="Ellipse_277-2" data-name="Ellipse 277" cx="19" cy="19" r="19" transform="translate(9 6)" fill="#fff"/>
    </g>
    <path id="Tracé_1293" data-name="Tracé 1293" d="M788.3,3.558c-.1.577-.164,1.161-.3,1.729a11.519,11.519,0,0,1-1.907,4.06,32.161,32.161,0,0,1-4.645,5.047q-2.97,2.734-5.96,5.443a1.568,1.568,0,0,1-2.321.052c-2.6-2.381-5.2-4.756-7.76-7.175a20.391,20.391,0,0,1-3.423-4.152,10.772,10.772,0,0,1-1.648-4.81,1.562,1.562,0,0,0-.04-.2V2.227c.016-.093.038-.185.047-.279a9.387,9.387,0,0,1,1.6-4.605,7.308,7.308,0,0,1,5.422-3.283,7,7,0,0,1,6.317,2.727c.21.247.4.509.594.749.416-.476.789-.967,1.222-1.388a6.77,6.77,0,0,1,7.348-1.723,7.919,7.919,0,0,1,5.169,6.1c.135.555.188,1.133.279,1.7ZM774.292,18.627c.065-.055.109-.089.149-.126,2.063-1.883,4.133-3.757,6.186-5.652A29.586,29.586,0,0,0,784.7,8.423a9.426,9.426,0,0,0,1.869-4.371,7.93,7.93,0,0,0-1.532-6.07,5.552,5.552,0,0,0-8.729-.225c-.432.5-.787,1.082-1.178,1.626a.985.985,0,0,1-1.659.006c-.115-.161-.214-.336-.32-.5a7.933,7.933,0,0,0-1.746-1.977,5.574,5.574,0,0,0-8.154,1.506,8.134,8.134,0,0,0-.326,8.428,14.508,14.508,0,0,0,2.908,3.882c1.686,1.662,3.419,3.271,5.146,4.886C772.067,16.625,773.176,17.611,774.292,18.627Z" transform="translate(-755.3 13.208)" fill="#043570"/>
  </g>
</svg>
