<svg xmlns="http://www.w3.org/2000/svg" width="218.016" height="63.489" viewBox="0 0 218.016 63.489">
  <g id="Logo_Léon_Site_Desktop_Bleu_Rouge" data-name="Logo Léon_Site Desktop Bleu+Rouge" transform="translate(-38 -47.1)">
    <g id="Groupe_3011" data-name="Groupe 3011" transform="translate(184.666 64.692)">
      <path id="Tracé_1608" data-name="Tracé 1608" d="M1993.014,676.547c-1.241-.6-3.751-1.826-6.557-3.247a6.1,6.1,0,0,1-.558,1.538c3.022,1.52,5.72,2.833,7.033,3.472l.027.018.027-.018c1.088-.495,3.984-1.826,7.087-3.409a5.877,5.877,0,0,1-.585-1.52C1996.792,674.766,1994.246,675.962,1993.014,676.547Z" transform="translate(-1957.371 -634.572)" fill="#0f346f"/>
      <g id="Groupe_3006" data-name="Groupe 3006" transform="translate(24.215 12.106)">
        <path id="Tracé_1609" data-name="Tracé 1609" d="M1960.67,392.5a1.775,1.775,0,0,0-.9.459,3.609,3.609,0,0,1-2.356.755,16.441,16.441,0,0,1-3.382-.549c-2.321-.531-5.621-1.484-5.621-1.484s1.421-3.337,2.068-5.6c1.3-.2,4.839.468,6.9-2.213,2.033-2.653.666-6.566-2.131-6.566h-.108c-2.383.09-4.119,1.682-5.54,3.8-.288.423-.782,1.3.243,1.3h.063a3.947,3.947,0,0,0,3.013-1.232,2.116,2.116,0,0,1,1.547-.881c.549,0,.989.369,1.025,1.151.072,1.934-1.646,2.06-4.956,2.177-.1.009-1.736.063-2.24.081h-.18c-2.527,0-4.569-1.871-6.215-4.209a.538.538,0,0,0-.4-.18.4.4,0,0,0-.36.207c-.4.684-.773,2,.567,3.8,2.033,2.716,5.909,2.86,5.909,2.86a48.885,48.885,0,0,1-1.988,4.677,10.829,10.829,0,0,0-3.067-.477,4.737,4.737,0,0,0-4.137,1.781c-.944,1.43-.792,4.848,3.13,5.082.153.009.3.009.45.009a7.913,7.913,0,0,0,5.37-2.15,8.036,8.036,0,0,0-3.625-.944,2.161,2.161,0,0,1-1.385.594.877.877,0,0,1-.926-.962c-.018-.441.477-.621,1.3-.621,2.626,0,8.517,1.853,10.991,2.932a6.481,6.481,0,0,0,2.644.585,4.675,4.675,0,0,0,4.389-2.572C1961.12,392.995,1961.048,392.5,1960.67,392.5Z" transform="translate(-1937.937 -377.3)" fill="#0f346f"/>
      </g>
      <path id="Tracé_1610" data-name="Tracé 1610" d="M1988.089,701.554c-3.247,1.664-6.3,3.067-7.438,3.58l-.4.18-.387-.189c-1.079-.522-4.029-1.943-7.348-3.625a3.035,3.035,0,0,1-.621.513c3.445,1.754,6.539,3.247,7.654,3.786l.7.333.71-.315c1.169-.531,4.4-2.015,7.78-3.76A3.266,3.266,0,0,1,1988.089,701.554Z" transform="translate(-1944.63 -660.235)" fill="#c10c1a"/>
      <g id="Groupe_3007" data-name="Groupe 3007" transform="translate(16.221)">
        <path id="Tracé_1611" data-name="Tracé 1611" d="M1886.453,277.147a11.786,11.786,0,0,1-2.249,2.824,15.428,15.428,0,0,1-1.313,1.1,9.085,9.085,0,0,1-1.412.926c.027-.153.09-.315.126-.468.018-.081.045-.477.1-.513a16.84,16.84,0,0,0,2.006-1.556,10.378,10.378,0,0,0,2.716-3.912,12.638,12.638,0,0,0,.693-5.109,21.2,21.2,0,0,0-.369-3.013c-1-5.333-3.2-15.425-4.1-19.508l-.279-1.259-1.043.324a12.485,12.485,0,0,1-3.715.522c-2.626,0-6.224-.8-8.445-3.04l-.7-.711-.7.711c-2.213,2.24-5.819,3.04-8.445,3.04a12.782,12.782,0,0,1-3.714-.522l-1.052-.324s-3.445,15.8-4.371,20.758c-1.1,5.909.018,9.857,3.724,12.718,0,0,.953.693,1.394.962a6.367,6.367,0,0,0,.252.989c-5.531-3.085-7.42-7.672-6.089-14.8,1-5.36,3.2-15.443,4.1-19.535l.45-2.033s1.754.54,1.808.558a12.275,12.275,0,0,0,10.289-1.394,17.976,17.976,0,0,0,2.356-2.177c.4.423.818.827,1.232,1.241,2.06,2.087,5.441,2.824,7.915,2.824a12.941,12.941,0,0,0,2.33-.234s.881-.171,1.169-.261l1.808-.558.45,2.033c.9,4.083,3.1,14.166,4.1,19.535a20.56,20.56,0,0,1,.378,4.866,11.993,11.993,0,0,1-.908,4.038C1886.786,276.518,1886.624,276.832,1886.453,277.147Z" transform="translate(-1849.051 -242.7)" fill="#c10c1a"/>
      </g>
      <path id="Tracé_1612" data-name="Tracé 1612" d="M1942.829,592.444a4.069,4.069,0,0,1-1.529-.944c.081,1.169.171,2.356.3,3.553h1.457C1942.964,594.189,1942.9,593.317,1942.829,592.444Z" transform="translate(-1916.782 -560.129)" fill="#0f346f"/>
      <path id="Tracé_1613" data-name="Tracé 1613" d="M2168.961,582.77c-.072,1.124-.144,2.24-.261,3.373h1.412c.153-1.493.261-2.968.36-4.443A5.272,5.272,0,0,1,2168.961,582.77Z" transform="translate(-2123.73 -551.21)" fill="#0f346f"/>
      <path id="Tracé_1614" data-name="Tracé 1614" d="M1899.216,306.377a4.892,4.892,0,0,0-.171-1.151l-.162-.639c2.842-2.32,3.553-5.127,2.689-9.759-.89-4.776-2.725-13.212-3.742-17.871-.486.09-.989.144-1.5.189-.126,4.407.558,8.994.765,13.383.09,1.88.1,3.724.063,5.549a2.33,2.33,0,0,0-1.331.621c-.045.036-.1.063-.153.108.054-2.653.027-5.315-.108-8.032-.036-.7-.081-1.394-.135-2.1a5.187,5.187,0,0,0-.288-3.454,54.037,54.037,0,0,1-.225-6.026,15.852,15.852,0,0,0-18.114,0c.09,4.056-.522,8.185-.72,12.232-.081,1.763-.1,3.49-.09,5.208a4.821,4.821,0,0,0-1.43,1.088c-.018-1.934,0-3.885.09-5.909.2-4.173.845-8.49.7-12.664-.486-.045-.971-.1-1.457-.189-1.025,4.686-2.86,13.167-3.742,17.871-.89,4.776-.135,7.654,2.716,9.848a3.618,3.618,0,0,0-.369,1.754c-3.849-2.617-5.01-6.188-3.939-11.908,1.043-5.558,3.391-16.306,4.092-19.463l.018-.081.081.027a13.571,13.571,0,0,0,3.957.567c1.367,0,6.044-.243,9.1-3.328l.045-.054.054.054c3.049,3.094,7.735,3.328,9.093,3.328a13.337,13.337,0,0,0,3.966-.567l.072-.027.018.081c1.124,5.082,3.139,14.381,4.092,19.463C1904.2,300.109,1903.084,303.58,1899.216,306.377Z" transform="translate(-1850.244 -269.547)" fill="#0f346f"/>
      <g id="Groupe_3008" data-name="Groupe 3008" transform="translate(43.297 36.273)">
        <path id="Tracé_1615" data-name="Tracé 1615" d="M2154.453,647c0,2.123-.971,3.867-2.177,3.867S2150.1,649.13,2150.1,647a5.145,5.145,0,0,1,.1-1h4.128A3.989,3.989,0,0,1,2154.453,647Z" transform="translate(-2150.1 -646)" fill="#0f346f"/>
      </g>
      <g id="Groupe_3009" data-name="Groupe 3009" transform="translate(23.636 36.273)">
        <path id="Tracé_1616" data-name="Tracé 1616" d="M1935.862,647c0,2.123-.971,3.867-2.177,3.867S1931.5,649.13,1931.5,647a3.57,3.57,0,0,1,.135-1h4.119A4.094,4.094,0,0,1,1935.862,647Z" transform="translate(-1931.5 -646)" fill="#0f346f"/>
      </g>
      <g id="Groupe_3010" data-name="Groupe 3010" transform="translate(0 15.865)">
        <path id="Tracé_1617" data-name="Tracé 1617" d="M1685.906,419.1h-7.312c-1.241,0-1.736.369-1.736,2.671-.468.045-3.094.27-4.452.252a11.685,11.685,0,0,1-2.932-.252c.135,2.473,4.065,5.261,4.065,5.261s-4.344,3.229-4.839,4.614c2.716,1.547,7.726,1.493,9.668.4,1.241-.684.81-1.169-.027-1.052-1.79.252-2.231-1.484-1-1.484h6.377Z" transform="translate(-1668.7 -419.1)" fill="#0f346f"/>
        <path id="Tracé_1618" data-name="Tracé 1618" d="M2287.633,431.847c-2.725,1.556-7.744,1.493-9.687.414-1.241-.693-.81-1.169.027-1.052,1.79.252,2.24-1.484,1-1.484h-6.4l-.054-.252-.135-.657L2270.4,419.3h7.33c1.241,0,1.727.369,1.727,2.653a.326.326,0,0,1-.027.135h.27c.4,0,.738-.009,1.025-.027a22.6,22.6,0,0,0,6.134-.1c-.126,2.473-4.074,5.28-4.074,5.28S2287.138,430.453,2287.633,431.847Z" transform="translate(-2216.283 -419.282)" fill="#0f346f"/>
      </g>
    </g>
    <g id="Groupe_3019" data-name="Groupe 3019" transform="translate(38 47.1)">
      <g id="Groupe_3016" data-name="Groupe 3016" transform="translate(0.27 17.906)">
        <g id="Groupe_3014" data-name="Groupe 3014" transform="translate(0 5.658)">
          <g id="Groupe_3012" data-name="Groupe 3012">
            <path id="Tracé_1619" data-name="Tracé 1619" d="M45.587,310.1v36.066H62.226V349.4H41V310.1Z" transform="translate(-41 -310.01)" fill="#0f346f"/>
            <path id="Tracé_1620" data-name="Tracé 1620" d="M374.1,312.338H354.677v14.75h17.538v3.238H354.677v14.84H374.1V348.4H350V309.1h24.1Z" transform="translate(-322.208 -309.1)" fill="#0f346f"/>
            <path id="Tracé_1621" data-name="Tracé 1621" d="M1200.807,310.1v39.214h-4.857l-25.363-32.99v32.99H1166V310.1h4.857l25.363,32.927V310.1Z" transform="translate(-1064.817 -310.01)" fill="#0f346f"/>
          </g>
          <g id="Groupe_3013" data-name="Groupe 3013" transform="translate(57.031 0.054)">
            <path id="Tracé_1622" data-name="Tracé 1622" d="M694.086,348.9c-10.757,0-18.986-8.068-18.986-19.6,0-11.467,8.23-19.6,18.986-19.6,10.811,0,18.986,8.122,18.986,19.6C713.073,340.828,704.9,348.9,694.086,348.9Zm0-3.346c8.508,0,15.038-6.206,15.038-16.243s-6.53-16.189-15.038-16.189-15.038,6.143-15.038,16.189S685.578,345.55,694.086,345.55Z" transform="translate(-675.1 -309.7)" fill="#0f346f"/>
          </g>
        </g>
        <g id="Groupe_3015" data-name="Groupe 3015" transform="translate(33.76 0)">
          <rect id="Rectangle_1704" data-name="Rectangle 1704" width="16.784" height="3.167" transform="translate(0)" fill="#c10c1a"/>
        </g>
      </g>
      <g id="Groupe_3017" data-name="Groupe 3017" transform="translate(0 0.027)">
        <path id="Tracé_1623" data-name="Tracé 1623" d="M40.069,49.1V60.163h4.317v1.709H38V49.1Z" transform="translate(-38 -48.947)" fill="#0f346f"/>
        <path id="Tracé_1624" data-name="Tracé 1624" d="M135.105,49.809h-4.947v3.777h4.407V55.3h-4.407v3.957h4.947v1.709H128V48.1h7.105Z" transform="translate(-119.905 -48.037)" fill="#0f346f"/>
        <path id="Tracé_1625" data-name="Tracé 1625" d="M236.824,60.477c-2.554,0-4.524-1.394-4.524-3.661h2.24a2.047,2.047,0,0,0,2.275,1.889c1.466,0,2.293-.791,2.293-1.871,0-3.085-6.782-1.088-6.782-5.792,0-2.24,1.781-3.643,4.389-3.643,2.446,0,4.173,1.286,4.353,3.472h-2.311a2,2,0,0,0-2.15-1.691c-1.214-.036-2.15.549-2.15,1.781,0,2.887,6.764,1.088,6.764,5.756C241.231,58.634,239.666,60.477,236.824,60.477Z" transform="translate(-214.825 -47.4)" fill="#0f346f"/>
        <path id="Tracé_1626" data-name="Tracé 1626" d="M417.109,61.872H412V49.1h4.866c2.7,0,4.137,1.484,4.137,3.292a2.984,2.984,0,0,1-2.168,2.923,3.184,3.184,0,0,1,2.464,3.121C421.3,60.379,419.717,61.872,417.109,61.872Zm-.333-11.063h-2.617V54.5h2.617c1.367,0,2.2-.648,2.2-1.835C418.979,51.492,418.143,50.809,416.776,50.809Zm.117,5.4h-2.734v3.957h2.806c1.4,0,2.258-.711,2.258-1.934C419.231,56.97,418.278,56.205,416.893,56.205Z" transform="translate(-378.362 -48.947)" fill="#0f346f"/>
        <path id="Tracé_1627" data-name="Tracé 1627" d="M545.353,49.1c2.995,0,4.461,1.745,4.461,3.822a3.634,3.634,0,0,1-2.923,3.661l3.121,5.288H547.62l-2.95-5.127h-1.6v5.127H541V49.1Zm.144,1.709h-2.338v4.317H545.5a2.083,2.083,0,0,0,2.392-2.186C547.88,51.645,547.143,50.809,545.5,50.809Z" transform="translate(-495.76 -48.947)" fill="#0f346f"/>
        <path id="Tracé_1628" data-name="Tracé 1628" d="M677.105,49.809h-4.947v3.777h4.407V55.3h-4.407v3.957h4.947v1.709H670V48.1h7.105Z" transform="translate(-613.158 -48.037)" fill="#0f346f"/>
        <path id="Tracé_1629" data-name="Tracé 1629" d="M770,49.1h8.9v1.709h-3.418V61.872h-2.069V50.809H770Z" transform="translate(-704.164 -48.947)" fill="#0f346f"/>
        <path id="Tracé_1630" data-name="Tracé 1630" d="M900.105,49.809h-5.037v3.777h4.407V55.3h-4.407v3.957h5.037v1.709H893V48.1h7.105Z" transform="translate(-816.101 -48.037)" fill="#0f346f"/>
        <path id="Tracé_1631" data-name="Tracé 1631" d="M1002.069,49.1V60.163h4.317v1.709H1000V49.1Z" transform="translate(-913.477 -48.947)" fill="#0f346f"/>
        <path id="Tracé_1632" data-name="Tracé 1632" d="M1093.069,49.1V60.163h4.317v1.709H1091V49.1Z" transform="translate(-996.293 -48.947)" fill="#0f346f"/>
        <path id="Tracé_1633" data-name="Tracé 1633" d="M1188.105,49.809h-4.947v3.777h4.407V55.3h-4.407v3.957h4.947v1.709H1181V48.1h7.105Z" transform="translate(-1078.198 -48.037)" fill="#0f346f"/>
        <path id="Tracé_1634" data-name="Tracé 1634" d="M1289.824,60.477c-2.554,0-4.524-1.394-4.524-3.661h2.24a2.047,2.047,0,0,0,2.276,1.889c1.466,0,2.293-.791,2.293-1.871,0-3.085-6.781-1.088-6.781-5.792,0-2.24,1.781-3.643,4.389-3.643,2.446,0,4.173,1.286,4.353,3.472h-2.312a2,2,0,0,0-2.149-1.691c-1.214-.036-2.15.549-2.15,1.781,0,2.887,6.764,1.088,6.764,5.756C1294.231,58.634,1292.666,60.477,1289.824,60.477Z" transform="translate(-1173.117 -47.4)" fill="#0f346f"/>
      </g>
      <g id="Groupe_3018" data-name="Groupe 3018" transform="translate(128.165)">
        <path id="Tracé_1635" data-name="Tracé 1635" d="M1467.173,54.241a3.977,3.977,0,0,1-4.173-4.3V47.1h8.365v2.851A3.983,3.983,0,0,1,1467.173,54.241Zm-2.734-4.371a2.456,2.456,0,0,0,2.725,2.68,2.487,2.487,0,0,0,2.761-2.68V48.719h-5.486Z" transform="translate(-1463 -47.1)" fill="#0f346f"/>
        <path id="Tracé_1636" data-name="Tracé 1636" d="M1470.015,143.867v-3.058h-2.069v2.7H1466.6v-2.7h-2.249v3.058H1463V139.1h8.365v4.767Z" transform="translate(-1463 -130.825)" fill="#0f346f"/>
      </g>
    </g>
  </g>
</svg>
