<svg xmlns="http://www.w3.org/2000/svg" width="69" height="69" viewBox="0 0 69 69">
  <g id="Logo_Léon_Favicon_Bleu_sur_Blanc" data-name="Logo Léon_Favicon Bleu sur Blanc" transform="translate(-50.193 -50.346)">
    <circle id="Ellipse_276" data-name="Ellipse 276" cx="34.5" cy="34.5" r="34.5" transform="translate(50.193 50.346)" fill="#fff"/>
    <g id="Groupe_3026" data-name="Groupe 3026" transform="translate(57.747 66.759)">
      <g id="Groupe_3023" data-name="Groupe 3023" transform="translate(18.534 10.669)">
        <g id="Groupe_3022" data-name="Groupe 3022">
          <g id="Groupe_3021" data-name="Groupe 3021">
            <g id="Groupe_3020" data-name="Groupe 3020">
              <path id="Tracé_1643" data-name="Tracé 1643" d="M593.709,611.434a1.3,1.3,0,0,0-.664.339,2.664,2.664,0,0,1-1.745.561,11.743,11.743,0,0,1-2.5-.408c-1.716-.388-4.159-1.1-4.159-1.1s1.052-2.468,1.529-4.145c.954-.148,3.574.349,5.1-1.632,1.5-1.962.492-4.853-1.578-4.853h-.084c-2,0-3.535,1.662-4.4,3.3-.054.1-.108.211-.157.319-.1.231-.211.457-.315.688-.034.074-.138.4-.236.413a.493.493,0,0,1-.084,0c-1.873,0-3.378-1.386-4.6-3.112a.381.381,0,0,0-.295-.133.292.292,0,0,0-.266.152,2.415,2.415,0,0,0,.423,2.807,6.291,6.291,0,0,0,4.371,2.114,35.119,35.119,0,0,1-1.47,3.461,8.3,8.3,0,0,0-2.271-.354c-1.514,0-3.3.688-3.422,2.434a2.539,2.539,0,0,0,2.085,2.6,4.939,4.939,0,0,0,3.594-.747,4.4,4.4,0,0,0,1.072-.954l.487-.62a42.429,42.429,0,0,1,4.444,1.509,4.859,4.859,0,0,0,1.957.438,3.464,3.464,0,0,0,3.245-1.9C594.048,611.8,593.989,611.434,593.709,611.434Zm-5.737-8.373a1.568,1.568,0,0,1,1.15-.654c.4,0,.733.275.757.855.049,1.318-1.028,1.5-3.1,1.588A10.872,10.872,0,0,1,587.971,603.062Zm-6.75,9.676a2.459,2.459,0,0,1-1.563.669.984.984,0,0,1-1.037-1.091c-.025-.492.541-.7,1.465-.7a13.329,13.329,0,0,1,2.05.207Z" transform="translate(-576.884 -600.2)" fill="#0f346f"/>
            </g>
          </g>
        </g>
      </g>
      <g id="Groupe_3025" data-name="Groupe 3025">
        <g id="Groupe_3024" data-name="Groupe 3024">
          <path id="Tracé_1644" data-name="Tracé 1644" d="M250.23,401.9l-.162-.123.167-.118c.029-.02,2.861-2.05,3.151-3.879a18.657,18.657,0,0,1-4.715.034c-.226.015-.5.025-.8.025h-.452l.108-.211a.119.119,0,0,0,.01-.049c0-1.8-.359-1.976-1.239-1.976h-5.8l-.025-.118c-.718-3.383-1.47-6.809-1.829-8.456l-.325-1.46-1.283.4c-.236.069-.919.2-.949.206a10.061,10.061,0,0,1-1.878.192,9.346,9.346,0,0,1-6.4-2.291c-.113-.118-.236-.236-.354-.354-.172-.172-.344-.344-.516-.521l-.28.28a10.65,10.65,0,0,1-1.5,1.357,9.9,9.9,0,0,1-8.3,1.131c-.039-.01-.924-.285-1.288-.4l-.324,1.46c-.472,2.148-1.18,5.374-1.849,8.54l-.025.118h-5.782c-.88,0-1.239.182-1.239,1.986v.138l-.138.01c-.929.079-2.616.211-3.559.2a11.417,11.417,0,0,1-2.163-.152c.295,1.824,3.127,3.854,3.156,3.874l.167.118-.162.123c-.034.025-3.2,2.384-3.756,3.5,2.094,1.116,5.924,1.106,7.443.261.492-.27.551-.452.541-.487s-.172-.113-.467-.074a1.415,1.415,0,0,1-1.377-.462.619.619,0,0,1,.56-1.018h5.2l-.02.167c-.585,4.867.949,8.033,4.961,10.27l3.623,1.893c2.738,1.386,5.162,2.561,6.077,3l.5.236.5-.221c.821-.374,3.338-1.524,6.028-2.906l3.741-2.075a6.088,6.088,0,0,0,.993-.639l.113-.084a12.27,12.27,0,0,0,1.032-.86,9.3,9.3,0,0,0,1.76-2.212,7,7,0,0,0,.369-.747,9.391,9.391,0,0,0,.713-3.161,13.944,13.944,0,0,0-.1-2.576l-.02-.167h5.216a.669.669,0,0,1,.644.324.65.65,0,0,1-.084.688,1.4,1.4,0,0,1-1.372.457c-.295-.039-.452.029-.467.074s.049.211.541.487c1.514.846,5.339.855,7.443-.261C253.425,404.291,250.259,401.927,250.23,401.9Zm-12.852,9.032-.02.01-5.172,2.989c-2.119,1.087-4.14,2.04-5.113,2.5l-.113.054-.064-.029c-1.79-.87-3.594-1.76-5.206-2.576l-5.123-2.861c-2.316-1.785-2.96-4.09-2.237-7.979.723-3.864,2.3-11.111,2.974-14.2l.03-.138.143.025c.359.064.733.113,1.141.147l1.141.044a11.994,11.994,0,0,0,7.1-2.232l.088-.069.089.069a12.05,12.05,0,0,0,7.1,2.232l1.111-.039c.423-.034.806-.084,1.17-.147l.143-.025.03.138c.949,4.376,2.3,10.6,2.97,14.2C240.269,406.809,239.635,409.095,237.378,410.934Z" transform="translate(-199.9 -383.2)" fill="#0f346f"/>
        </g>
      </g>
    </g>
  </g>
</svg>
