<svg id="pinterest" xmlns="http://www.w3.org/2000/svg" width="18.9" height="24" viewBox="0 0 18.9 24">
  <g id="Groupe_2879" data-name="Groupe 2879" transform="translate(-1999.662 -41.136)">
    <path id="Tracé_1351" data-name="Tracé 1351" d="M2002.222,54.8a.482.482,0,0,0,.719-.308c.08-.244.27-.851.353-1.105a.683.683,0,0,0-.155-.791,4.03,4.03,0,0,1-.76-2.795,6.628,6.628,0,0,1,7.276-6.28c3.752.223,5.676,2.639,5.494,5.7-.238,4.027-2.223,7.321-4.871,7.164a2.166,2.166,0,0,1-2.043-2.824c.523-1.744,1.451-3.605,1.528-4.882a1.875,1.875,0,0,0-1.76-2.21c-1.494-.089-2.785,1.386-2.909,3.455a5.375,5.375,0,0,0,.314,2.239l-2.25,7.5a15.693,15.693,0,0,0-.358,5.306.186.186,0,0,0,.327.1,14.907,14.907,0,0,0,2.794-4.421c.208-.611,1.212-3.781,1.212-3.781a4.007,4.007,0,0,0,3.309,1.944c4.49.266,7.781-3.646,8.107-9.125.246-4.142-3.034-8.212-8.369-8.528-6.636-.395-10.265,4.163-10.5,8.131C1999.536,51.693,2000.318,53.885,2002.222,54.8Z" fill="#043570"/>
  </g>
</svg>
