<svg id="youtube" xmlns="http://www.w3.org/2000/svg" width="30" height="21.1" viewBox="0 0 30 21.1">
  <g id="Groupe_2880" data-name="Groupe 2880" transform="translate(-1877.191 -47.544)">
    <path id="Tracé_1352" data-name="Tracé 1352" d="M1878.684,67.06a5.083,5.083,0,0,0,3.307,1.282c2.4.23,10.2.3,10.2.3s6.3-.009,10.5-.313a4.284,4.284,0,0,0,3.006-1.271,6.488,6.488,0,0,0,1.193-2.978,45.473,45.473,0,0,0,.3-4.855V56.951a45.487,45.487,0,0,0-.3-4.856,6.488,6.488,0,0,0-1.193-2.978,4.291,4.291,0,0,0-3.006-1.271c-4.2-.3-10.495-.3-10.495-.3h-.013s-6.3,0-10.5.3a4.292,4.292,0,0,0-3.006,1.271,6.491,6.491,0,0,0-1.193,2.978,45.377,45.377,0,0,0-.3,4.856v2.276a45.363,45.363,0,0,0,.3,4.855A6.491,6.491,0,0,0,1878.684,67.06Zm14.558-11.339,3,1.566.955.5-.955.495-1.605.832-.8.414-1.816.941-2.928,1.517V53.556Z" transform="translate(0)" fill="#043570"/>
  </g>
</svg>
