<svg id="cart-with-items" xmlns="http://www.w3.org/2000/svg" width="24.873" height="28.738" viewBox="0 0 24.873 28.738">
  <path id="Tracé_1509" data-name="Tracé 1509" d="M59.868,27.794l-2.184-20.8a.855.855,0,0,0-.851-.766H52.728V5.291a5.292,5.292,0,0,0-10.583,0v.936H38.039a.855.855,0,0,0-.851.766L35,27.794a.855.855,0,0,0,.851.945H59.017a.856.856,0,0,0,.851-.945ZM43.855,5.291a3.581,3.581,0,0,1,7.162,0v.936H43.855ZM36.8,27.028l2-19.089h3.335V9.823a.855.855,0,0,0,1.711,0V7.938h7.162V9.823a.855.855,0,0,0,1.711,0V7.938h3.335l2,19.089Z" transform="translate(-34.999)" fill="#043570"/>
</svg>
