<svg id="cart-with-items" xmlns="http://www.w3.org/2000/svg" width="34.311" height="29.186" viewBox="0 0 34.311 29.186">
  <path id="Tracé_1509" data-name="Tracé 1509" d="M59.868,27.794l-2.184-20.8a.855.855,0,0,0-.851-.766H52.728V5.291a5.292,5.292,0,0,0-10.583,0v.936H38.039a.855.855,0,0,0-.851.766L35,27.794a.855.855,0,0,0,.851.945H59.017a.856.856,0,0,0,.851-.945ZM43.855,5.291a3.581,3.581,0,0,1,7.162,0v.936H43.855ZM36.8,27.028l2-19.089h3.335V9.823a.855.855,0,0,0,1.711,0V7.938h7.162V9.823a.855.855,0,0,0,1.711,0V7.938h3.335l2,19.089Z" transform="translate(-34.999 0.447)" fill="#043570"/>
  <g id="Tracé_216" data-name="Tracé 216" transform="translate(19.311)" fill="#c10c1a">
    <path d="M 7.500000476837158 14.5 C 3.640190362930298 14.5 0.5000004768371582 11.3598108291626 0.5000004768371582 7.500000476837158 C 0.5000004768371582 3.640190362930298 3.640190362930298 0.5000004768371582 7.500000476837158 0.5000004768371582 C 11.3598108291626 0.5000004768371582 14.5 3.640190362930298 14.5 7.500000476837158 C 14.5 11.3598108291626 11.3598108291626 14.5 7.500000476837158 14.5 Z" stroke="none"/>
    <path d="M 7.500000476837158 1.000000953674316 C 3.915890693664551 1.000000953674316 1.000000953674316 3.915890693664551 1.000000953674316 7.500000476837158 C 1.000000953674316 11.08411026000977 3.915890693664551 14 7.500000476837158 14 C 11.08411026000977 14 14 11.08411026000977 14 7.500000476837158 C 14 3.915890693664551 11.08411026000977 1.000000953674316 7.500000476837158 1.000000953674316 M 7.500000476837158 9.5367431640625e-07 C 11.64212989807129 9.5367431640625e-07 15 3.357860565185547 15 7.500000476837158 C 15 11.64212989807129 11.64212989807129 15 7.500000476837158 15 C 3.357860565185547 15 9.5367431640625e-07 11.64212989807129 9.5367431640625e-07 7.500000476837158 C 9.5367431640625e-07 3.357860565185547 3.357860565185547 9.5367431640625e-07 7.500000476837158 9.5367431640625e-07 Z" stroke="none" fill="#fff"/>
  </g>
  <text id="_3" data-name="3" transform="translate(24.311 11)" fill="#fff" font-size="10" font-family="ABeeZee-Regular, ABeeZee"><tspan x="0" y="0">3</tspan></text>
</svg>
