<svg id="cart-with-items" xmlns="http://www.w3.org/2000/svg" width="31.31" height="31.187" viewBox="0 0 31.31 31.187">
  <path id="Tracé_1509" data-name="Tracé 1509" d="M59.868,27.794l-2.184-20.8a.855.855,0,0,0-.851-.766H52.728V5.291a5.292,5.292,0,0,0-10.583,0v.936H38.039a.855.855,0,0,0-.851.766L35,27.794a.855.855,0,0,0,.851.945H59.017a.856.856,0,0,0,.851-.945ZM43.855,5.291a3.581,3.581,0,0,1,7.162,0v.936H43.855ZM36.8,27.028l2-19.089h3.335V9.823a.855.855,0,0,0,1.711,0V7.938h7.162V9.823a.855.855,0,0,0,1.711,0V7.938h3.335l2,19.089Z" transform="translate(-34.999 2.449)" fill="#fff"/>
  <path id="Tracé_1340" data-name="Tracé 1340" d="M94.209,142.9H91.251V139.94a1.021,1.021,0,1,0-2.042,0V142.9H86.251a1.021,1.021,0,1,0,0,2.042h2.958V147.9a1.021,1.021,0,0,0,2.042,0V144.94h2.958a1.021,1.021,0,1,0,0-2.042Z" transform="translate(-63.92 -138.919)" fill="#fff"/>
</svg>
