<svg id="Logo_Léon_Blason_Seul_Blanc" data-name="Logo Léon_Blason Seul Blanc" xmlns="http://www.w3.org/2000/svg" width="103.508" height="66.565" viewBox="0 0 103.508 66.565">
  <path id="Tracé_1667" data-name="Tracé 1667" d="M497.327,654.3c-1.8-.871-5.448-2.651-9.511-4.7a8.554,8.554,0,0,1-.816,2.229c4.384,2.21,8.291,4.109,10.2,5.026l.046.018.046-.018c1.587-.715,5.778-2.641,10.281-4.934a8.656,8.656,0,0,1-.844-2.21C502.811,651.728,499.124,653.461,497.327,654.3Z" transform="translate(-445.609 -593.416)" fill="#fff"/>
  <g id="Groupe_3051" data-name="Groupe 3051" transform="translate(35.14 17.535)">
    <path id="Tracé_1668" data-name="Tracé 1668" d="M451.822,250.22a2.474,2.474,0,0,0-1.3.67,5.225,5.225,0,0,1-3.421,1.1,23.155,23.155,0,0,1-4.9-.8c-3.357-.761-8.153-2.146-8.153-2.146s2.054-4.842,3-8.126c1.871-.284,7.016.679,10.006-3.2,2.953-3.843.963-9.52-3.091-9.52H443.8c-3.458.128-5.971,2.449-8.043,5.512-.422.614-1.128,1.871.349,1.871h.1c1.678-.119,3.338-.468,4.375-1.779a3.035,3.035,0,0,1,2.247-1.284c.8,0,1.44.541,1.486,1.678.1,2.806-2.394,2.981-7.181,3.155-.138.009-2.522.092-3.256.119h-.266c-3.669,0-6.622-2.715-9.006-6.108a.748.748,0,0,0-.578-.257.568.568,0,0,0-.523.3c-.587.991-1.119,2.9.825,5.5,2.944,3.934,8.566,4.145,8.566,4.145A67.73,67.73,0,0,1,430,247.845a16.153,16.153,0,0,0-4.448-.7c-3.137,0-5.108,1.229-6.007,2.577-1.376,2.073-1.146,7.034,4.54,7.365.22.018.431.018.651.018a11.452,11.452,0,0,0,7.786-3.127,11.715,11.715,0,0,0-5.264-1.367,3.159,3.159,0,0,1-2.009.853,1.272,1.272,0,0,1-1.339-1.4c-.028-.633.7-.9,1.88-.9,3.806,0,12.354,2.687,15.949,4.256a9.569,9.569,0,0,0,3.843.853c3.448,0,5.833-2.164,6.365-3.724C452.482,250.936,452.372,250.22,451.822,250.22Z" transform="translate(-418.846 -228.2)" fill="#fff"/>
  </g>
  <path id="Tracé_1669" data-name="Tracé 1669" d="M490.6,689.682c-4.7,2.412-9.144,4.457-10.795,5.191l-.569.266-.569-.275c-1.559-.752-5.842-2.816-10.666-5.264a4.556,4.556,0,0,1-.9.743c4.989,2.54,9.483,4.714,11.1,5.484l1.018.486,1.027-.459c1.7-.77,6.374-2.917,11.281-5.448A4.6,4.6,0,0,1,490.6,689.682Z" transform="translate(-427.535 -629.748)" fill="#fff"/>
  <g id="Groupe_3052" data-name="Groupe 3052" transform="translate(23.516)">
    <path id="Tracé_1670" data-name="Tracé 1670" d="M346.375,86.975a17.012,17.012,0,0,1-3.265,4.1,21.071,21.071,0,0,1-1.908,1.587A11.96,11.96,0,0,1,339.148,94c.037-.229.128-.449.174-.679.027-.11.064-.7.147-.752a25.663,25.663,0,0,0,2.907-2.256,15.085,15.085,0,0,0,3.934-5.677,18.314,18.314,0,0,0,1-7.41,33.509,33.509,0,0,0-.532-4.375c-1.44-7.731-4.641-22.36-5.943-28.284l-.4-1.825-1.513.468a18.226,18.226,0,0,1-5.384.761c-3.815,0-9.034-1.156-12.253-4.411l-1.018-1.036-1.018,1.036c-3.21,3.256-8.438,4.411-12.253,4.411a18.226,18.226,0,0,1-5.384-.761l-1.522-.468s-5,22.91-6.347,30.109c-1.6,8.566.037,14.3,5.4,18.444,0,0,1.385,1.009,2.018,1.394a8.477,8.477,0,0,0,.358,1.44C293.493,89.653,290.76,83,292.7,72.658c1.449-7.777,4.641-22.4,5.952-28.33l.66-2.944s2.54.78,2.623.807a17.8,17.8,0,0,0,14.922-2.027A26.475,26.475,0,0,0,320.265,37c.578.614,1.192,1.2,1.779,1.8,2.99,3.027,7.887,4.1,11.483,4.1a18.224,18.224,0,0,0,3.375-.339s1.275-.238,1.7-.376l2.623-.816.67,2.972c1.3,5.925,4.5,20.553,5.952,28.33a29.377,29.377,0,0,1,.541,7.053,17.405,17.405,0,0,1-1.321,5.86A13.106,13.106,0,0,1,346.375,86.975Z" transform="translate(-292.099 -37)" fill="#fff"/>
  </g>
  <path id="Tracé_1671" data-name="Tracé 1671" d="M426.01,535.367A5.821,5.821,0,0,1,423.8,534c.11,1.706.257,3.412.422,5.154h2.109C426.2,537.889,426.111,536.632,426.01,535.367Z" transform="translate(-388.206 -488.418)" fill="#fff"/>
  <path id="Tracé_1672" data-name="Tracé 1672" d="M747.576,521.641c-.1,1.623-.211,3.256-.376,4.9h2.054c.22-2.155.385-4.3.523-6.438A8.027,8.027,0,0,1,747.576,521.641Z" transform="translate(-681.946 -475.793)" fill="#fff"/>
  <path id="Tracé_1673" data-name="Tracé 1673" d="M364.807,128.571a7.874,7.874,0,0,0-.238-1.669l-.238-.926c4.127-3.366,5.145-7.429,3.9-14.151-1.293-6.924-3.953-19.168-5.429-25.918-.706.128-1.44.211-2.174.275-.183,6.392.807,13.042,1.11,19.407.138,2.733.138,5.4.092,8.043a3.426,3.426,0,0,0-1.935.908c-.064.055-.147.092-.22.147.083-3.843.037-7.7-.147-11.657-.046-1.018-.119-2.027-.2-3.036a7.585,7.585,0,0,0-.413-5.008,79.639,79.639,0,0,1-.33-8.74,22.149,22.149,0,0,1-13.133-4.127A22.177,22.177,0,0,1,332.3,86.245c.138,5.888-.761,11.868-1.036,17.737-.119,2.55-.147,5.063-.138,7.548a6.776,6.776,0,0,0-2.073,1.587c-.027-2.8-.009-5.631.138-8.575.284-6.053,1.229-12.317,1.009-18.37-.706-.064-1.412-.147-2.109-.266-1.477,6.805-4.145,19.095-5.42,25.918-1.293,6.924-.193,11.1,3.944,14.28a5.414,5.414,0,0,0-.541,2.55c-5.585-3.8-7.264-8.979-5.714-17.26,1.513-8.052,4.925-23.644,5.934-28.22l.018-.119.119.037a19.475,19.475,0,0,0,5.741.816c1.981,0,8.768-.349,13.2-4.833l.073-.073.083.073c4.421,4.485,11.217,4.833,13.188,4.833a19.493,19.493,0,0,0,5.75-.816l.11-.037.018.119c1.623,7.374,4.558,20.856,5.934,28.22C372.034,119.482,370.419,124.517,364.807,128.571Z" transform="translate(-293.756 -75.148)" fill="#fff"/>
  <g id="Groupe_3053" data-name="Groupe 3053" transform="translate(62.823 52.689)">
    <path id="Tracé_1674" data-name="Tracé 1674" d="M727.01,612.94c0,3.082-1.412,5.6-3.155,5.6s-3.155-2.522-3.155-5.6a7.237,7.237,0,0,1,.138-1.44h5.989A5.579,5.579,0,0,1,727.01,612.94Z" transform="translate(-720.7 -611.5)" fill="#fff"/>
  </g>
  <g id="Groupe_3054" data-name="Groupe 3054" transform="translate(34.319 52.689)">
    <path id="Tracé_1675" data-name="Tracé 1675" d="M416.219,612.94c0,3.082-1.412,5.6-3.155,5.6s-3.164-2.522-3.164-5.6a5.2,5.2,0,0,1,.193-1.44h5.98A6.607,6.607,0,0,1,416.219,612.94Z" transform="translate(-409.9 -611.5)" fill="#fff"/>
  </g>
  <g id="Groupe_3055" data-name="Groupe 3055" transform="translate(0 22.938)">
    <path id="Tracé_1676" data-name="Tracé 1676" d="M60.719,287.1H50.09c-1.816,0-2.531.541-2.531,3.889-.688.055-4.5.394-6.475.367a16.461,16.461,0,0,1-4.255-.367c.193,3.6,5.906,7.658,5.906,7.658s-6.31,4.7-7.034,6.723c3.953,2.256,11.244,2.164,14.06.6,1.807-1,1.174-1.7-.037-1.532-2.6.358-3.247-2.155-1.449-2.155h9.281Z" transform="translate(-35.7 -287.1)" fill="#fff"/>
    <path id="Tracé_1677" data-name="Tracé 1677" d="M916.519,305.369c-3.953,2.256-11.235,2.164-14.06.6-1.807-1-1.174-1.7.037-1.532,2.6.358,3.247-2.155,1.449-2.155h-9.281l-.083-.367-.2-.963L891.5,287.1h10.63c1.816,0,2.531.541,2.531,3.889a.389.389,0,0,1-.046.193H905c.587,0,1.064-.018,1.486-.046,3.036.229,7.016.4,8.9-.147-.183,3.6-5.906,7.658-5.906,7.658S915.795,303.352,916.519,305.369Z" transform="translate(-813.012 -287.1)" fill="#fff"/>
  </g>
</svg>
