<svg xmlns="http://www.w3.org/2000/svg" width="201.776" height="19.083" viewBox="0 0 201.776 19.083">
  <g id="Logo_Léon_Site_Mobile_Bleu_Rouge" data-name="Logo Léon_Site Mobile Bleu+Rouge" transform="translate(-30.1 -13)">
    <g id="Groupe_2972" data-name="Groupe 2972" transform="translate(175.515 13)">
      <g id="Groupe_2970" data-name="Groupe 2970" transform="translate(0 2.358)">
        <g id="Groupe_2968" data-name="Groupe 2968">
          <path id="Tracé_1571" data-name="Tracé 1571" d="M1357.908,34.7V49.648h6.876v1.327H1356V34.7Z" transform="translate(-1356 -34.678)" fill="#0f346f"/>
          <path id="Tracé_1572" data-name="Tracé 1572" d="M1471.1,35.849h-8.083v6.076h7.26v1.349h-7.26v6.175h8.083V50.8h-10V34.5h10Z" transform="translate(-1449.573 -34.5)" fill="#0f346f"/>
          <path id="Tracé_1573" data-name="Tracé 1573" d="M1752.733,34.7V50.975h-1.919l-10.594-13.687V50.975H1738.3V34.7h1.919l10.594,13.665V34.7Z" transform="translate(-1696.372 -34.678)" fill="#0f346f"/>
        </g>
        <g id="Groupe_2969" data-name="Groupe 2969" transform="translate(23.624 0.011)">
          <path id="Tracé_1574" data-name="Tracé 1574" d="M1579.275,50.854a7.756,7.756,0,0,1-7.875-8.127,7.878,7.878,0,1,1,15.749,0A7.744,7.744,0,0,1,1579.275,50.854Zm0-1.393c3.531,0,6.229-2.566,6.229-6.734s-2.709-6.712-6.229-6.712-6.23,2.544-6.23,6.712S1575.754,49.461,1579.275,49.461Z" transform="translate(-1571.4 -34.6)" fill="#0f346f"/>
        </g>
      </g>
      <g id="Groupe_2971" data-name="Groupe 2971" transform="translate(13.928 0)">
        <rect id="Rectangle_1693" data-name="Rectangle 1693" width="7.008" height="1.239" fill="#c10c1a"/>
      </g>
    </g>
    <g id="Groupe_2973" data-name="Groupe 2973" transform="translate(30.1 15.961)">
      <path id="Tracé_1575" data-name="Tracé 1575" d="M31.943,40V54.543h6.613v1.294H30.1V40Z" transform="translate(-30.1 -40)" fill="#0f346f"/>
      <path id="Tracé_1576" data-name="Tracé 1576" d="M132.134,84.021h-5.44v4.135h4.891v.921h-4.891v4.211h5.44v.921H125.4V83.1h6.734Z" transform="translate(-114.948 -78.373)" fill="#0f346f"/>
      <path id="Tracé_1577" data-name="Tracé 1577" d="M210.354,93.518c-2.577,0-4.277-1.272-4.354-2.961h1.36c.11.921.9,2.029,2.983,2.029,1.788,0,2.841-.9,2.841-2.051,0-3.268-7.085-1.206-7.085-5.374,0-1.711,1.645-2.961,4.135-2.961,2.457,0,3.926,1.174,4.146,2.7h-1.4c-.143-.779-1.009-1.733-2.808-1.744-1.513-.011-2.764.7-2.764,1.985,0,3.2,7.085,1.239,7.085,5.363C214.5,91.994,213.085,93.518,210.354,93.518Z" transform="translate(-186.709 -77.572)" fill="#0f346f"/>
      <path id="Tracé_1578" data-name="Tracé 1578" d="M384.172,55.837H377.8V40H384c3.871,0,5.714,1.766,5.714,3.992,0,2.084-1.524,3.235-3.29,3.674a4.2,4.2,0,0,1,3.718,3.937C390.127,53.972,388.043,55.837,384.172,55.837Zm-.307-14.5h-4.211V47h4.3c2.5,0,3.9-1.086,3.9-2.851C387.835,42.446,386.519,41.338,383.865,41.338Zm.1,6.975h-4.321V54.5h4.4c2.665,0,4.244-1.152,4.244-3.06S386.6,48.313,383.964,48.313Z" transform="translate(-339.667 -40)" fill="#0f346f"/>
      <path id="Tracé_1579" data-name="Tracé 1579" d="M519.282,83.3c2.983,0,4.387,1.393,4.387,3.224,0,1.524-1,2.808-3.169,3.159l3.323,4.716h-1.557l-3.191-4.628h-2.38V94.4H515.4V83.3Zm0,.932h-2.577v4.617h2.6c2.106,0,3.038-.987,3.038-2.336C522.342,85.121,521.454,84.232,519.282,84.232Z" transform="translate(-462.176 -78.551)" fill="#0f346f"/>
      <path id="Tracé_1580" data-name="Tracé 1580" d="M620.834,84.021h-5.44v4.135h4.891v.921h-4.891v4.211h5.44v.921H614.1V83.1h6.734Z" transform="translate(-550.051 -78.373)" fill="#0f346f"/>
      <path id="Tracé_1581" data-name="Tracé 1581" d="M690.3,83.3h8.467v.921h-3.576V94.388H693.9V84.221h-3.6Z" transform="translate(-617.894 -78.551)" fill="#0f346f"/>
      <path id="Tracé_1582" data-name="Tracé 1582" d="M792.934,84.021h-5.44v4.135h4.891v.921h-4.891v4.211h5.44v.921H786.2V83.1h6.734Z" transform="translate(-703.276 -78.373)" fill="#0f346f"/>
      <path id="Tracé_1583" data-name="Tracé 1583" d="M871.994,83.3V93.478h4.628v.9H870.7V83.3Z" transform="translate(-778.509 -78.551)" fill="#0f346f"/>
      <path id="Tracé_1584" data-name="Tracé 1584" d="M942.794,83.3V93.478h4.628v.9H941.5V83.3Z" transform="translate(-841.544 -78.551)" fill="#0f346f"/>
      <path id="Tracé_1585" data-name="Tracé 1585" d="M1019.034,84.021h-5.439v4.135h4.891v.921h-4.891v4.211h5.439v.921H1012.3V83.1h6.734Z" transform="translate(-904.58 -78.373)" fill="#0f346f"/>
      <path id="Tracé_1586" data-name="Tracé 1586" d="M1097.254,93.518c-2.577,0-4.277-1.272-4.354-2.961h1.36c.109.921.9,2.029,2.983,2.029,1.787,0,2.841-.9,2.841-2.051,0-3.268-7.085-1.206-7.085-5.374,0-1.711,1.645-2.961,4.135-2.961,2.457,0,3.926,1.174,4.146,2.7h-1.4c-.143-.779-1.009-1.733-2.808-1.744-1.513-.011-2.763.7-2.763,1.985,0,3.2,7.085,1.239,7.085,5.363C1101.4,91.994,1099.985,93.518,1097.254,93.518Z" transform="translate(-976.34 -77.572)" fill="#0f346f"/>
    </g>
    <g id="Groupe_2974" data-name="Groupe 2974" transform="translate(168.705 32.083) rotate(180)">
      <path id="Tracé_1587" data-name="Tracé 1587" d="M3.9,0c2.38,0,3.839,1.6,3.839,4.036V6.515H0V4.036A3.726,3.726,0,0,1,3.9,0ZM6.712,4.036A2.517,2.517,0,0,0,3.9,1.283,2.559,2.559,0,0,0,1.042,4.036V5.275h5.67Z" transform="translate(0.022 5.429)" fill="#0f346f"/>
      <path id="Tracé_1588" data-name="Tracé 1588" d="M1.053,0V2.95h2.27V.318H4.354V2.95H6.723V0H7.754V4.2H0V0Z" fill="#0f346f"/>
    </g>
  </g>
</svg>
