<svg xmlns="http://www.w3.org/2000/svg" xmlns:xlink="http://www.w3.org/1999/xlink" width="32" height="38.4" viewBox="0 0 32 38.4">
  <defs>
    <linearGradient id="linear-gradient" x1="-0.198" y1="1.245" x2="-0.156" y2="1.229" gradientUnits="objectBoundingBox">
      <stop offset="0" stop-color="#fff" stop-opacity="0.2"/>
      <stop offset="1" stop-color="#fff" stop-opacity="0"/>
    </linearGradient>
  </defs>
  <g id="tap" transform="translate(-42.666)">
    <path id="Tracé_2" data-name="Tracé 2" d="M71.466,14.4a3.181,3.181,0,0,0-1.62.441,3.2,3.2,0,0,0-5.237-2.087,3.2,3.2,0,0,0-4.343-1.124V3.2a3.2,3.2,0,1,0-6.4,0V24.611a.8.8,0,0,1-1.158.716l-5.137-2.569a3.389,3.389,0,0,0-4.9,3.031V26.4a.8.8,0,0,0,.254.585L52.153,35.6a10.37,10.37,0,0,0,7.1,2.8h5.016A10.412,10.412,0,0,0,74.666,28V17.6A3.2,3.2,0,0,0,71.466,14.4Z" fill="#303c42"/>
    <path id="Tracé_3" data-name="Tracé 3" d="M92.8,47.734a8.81,8.81,0,0,1-8.8,8.8H78.984a8.77,8.77,0,0,1-6-2.367L64,45.786v-.263a1.789,1.789,0,0,1,2.589-1.6l5.137,2.569A2.4,2.4,0,0,0,75.2,44.345V22.934a1.6,1.6,0,0,1,3.2,0v12a.8.8,0,0,0,1.6,0v-.8a1.6,1.6,0,0,1,3.2,0v.8h0a.8.8,0,0,0,1.6-.005v-.013a1.6,1.6,0,0,1,3.2.012v2.4a.8.8,0,0,0,1.6,0,1.6,1.6,0,1,1,3.2,0Z" transform="translate(-19.734 -19.734)" fill="#fafafa"/>
    <path id="Tracé_4" data-name="Tracé 4" d="M91.2,213.333v10.4a8.576,8.576,0,0,1-8.311,8.8H78.152a8.038,8.038,0,0,1-5.67-2.367S64,222.745,64,223.122v.263l8.98,8.381a8.771,8.771,0,0,0,6,2.367H84a8.81,8.81,0,0,0,8.8-8.8v-10.4A1.6,1.6,0,0,0,91.2,213.333Z" transform="translate(-19.735 -197.333)" opacity="0.1"/>
    <path id="Tracé_5" data-name="Tracé 5" d="M71.466,14.4a3.181,3.181,0,0,0-1.62.441,3.2,3.2,0,0,0-5.237-2.087,3.2,3.2,0,0,0-4.343-1.124V3.2a3.2,3.2,0,1,0-6.4,0V24.611a.8.8,0,0,1-1.158.716l-5.137-2.569a3.389,3.389,0,0,0-4.9,3.031V26.4a.8.8,0,0,0,.254.585L52.153,35.6a10.37,10.37,0,0,0,7.1,2.8h5.016A10.412,10.412,0,0,0,74.666,28V17.6A3.2,3.2,0,0,0,71.466,14.4Z" fill="url(#linear-gradient)"/>
  </g>
</svg>
