<svg xmlns="http://www.w3.org/2000/svg" xmlns:xlink="http://www.w3.org/1999/xlink" width="14.557" height="13.487" viewBox="0 0 14.557 13.487">
  <defs>
    <clipPath id="clip-path">
      <rect width="14.557" height="13.487" fill="none"/>
    </clipPath>
  </defs>
  <g id="Tick" clip-path="url(#clip-path)">
    <g id="Groupe_2848" data-name="Groupe 2848" transform="translate(-282.721 -295.378) rotate(11)">
      <path id="Tracé_1342" data-name="Tracé 1342" d="M348.165,277.229a1.073,1.073,0,0,0-1.489.288l-5,7.823-3.716-3.449a1.072,1.072,0,0,0-1.777,1.2l4.594,4.748,0,0,.009.014.01.013q.029.042.063.081l.026.029q.028.03.059.059l.033.031c.02.017.041.033.063.049l.034.026h0l.005,0a1.052,1.052,0,0,0,.122.07l.046.02c.029.013.059.024.089.034l.056.017c.029.008.058.014.088.02l.053.01a1.084,1.084,0,0,0,.131.009h.021a1.084,1.084,0,0,0,.131-.009l.054-.01c.03-.006.059-.012.088-.02l.056-.017c.03-.01.06-.022.089-.034l.045-.02a1.068,1.068,0,0,0,.123-.07l.005,0h0l.035-.026c.021-.016.043-.032.062-.049l.033-.031c.02-.019.04-.038.058-.059l.026-.029q.033-.039.062-.081l.01-.013.009-.014v0l5.875-9.122A1.073,1.073,0,0,0,348.165,277.229Z" transform="translate(0 -41.451)" fill="#043570"/>
    </g>
  </g>
</svg>
